<svg width="408" height="351" viewBox="0 0 408 351" fill="none" xmlns="http://www.w3.org/2000/svg">
<path fill-rule="evenodd" clip-rule="evenodd" d="M207.598 6.66066C242.571 14.8911 264.231 46.5152 294.511 65.8597C327.667 87.0409 374.088 90.8017 393.174 125.215C413.244 161.405 412.164 208.857 394.6 246.329C377.826 282.117 337.706 297.933 303.198 317.181C272.971 334.041 242.046 353.945 207.598 350.636C174.497 347.456 153.386 316.438 124.468 300.011C90.1977 280.544 44.4183 278.56 22.7449 245.63C-1.06045 209.461 -5.33686 161.801 5.99341 120.005C17.6269 77.0898 46.1075 38.3018 84.8535 16.5185C121.535 -4.10397 166.64 -2.97854 207.598 6.66066Z" fill="#F7F7F7"/>
</svg>
