<svg width="30" height="30" viewBox="0 0 30 30" fill="none" xmlns="http://www.w3.org/2000/svg">
<circle opacity="0.5" cx="15" cy="15" r="15" fill="#EAAC8B"/>
<path d="M16.6809 8.92258C16.4313 8.68476 16.0353 8.69414 15.7975 8.94414C15.5594 9.19414 15.5694 9.58976 15.8191 9.82789L20.6134 14.3751H8.125C7.78 14.3751 7.5 14.6551 7.5 15.0001C7.5 15.3451 7.78 15.6251 8.125 15.6251H20.5934L15.8191 20.1726C15.5691 20.4107 15.5594 20.8063 15.7975 21.0563C15.9203 21.1851 16.085 21.2501 16.25 21.2501C16.405 21.2501 16.56 21.1929 16.6809 21.0776L22.1337 15.8838C22.37 15.6479 22.5 15.3341 22.5 15.0001C22.5 14.666 22.37 14.3523 22.1228 14.1057L16.6809 8.92258Z" fill="white"/>
<path d="M16.6809 8.92258C16.4313 8.68476 16.0353 8.69414 15.7975 8.94414C15.5594 9.19414 15.5694 9.58976 15.8191 9.82789L20.6134 14.3751H8.125C7.78 14.3751 7.5 14.6551 7.5 15.0001C7.5 15.3451 7.78 15.6251 8.125 15.6251H20.5934L15.8191 20.1726C15.5691 20.4107 15.5594 20.8063 15.7975 21.0563C15.9203 21.1851 16.085 21.2501 16.25 21.2501C16.405 21.2501 16.56 21.1929 16.6809 21.0776L22.1337 15.8838C22.37 15.6479 22.5 15.3341 22.5 15.0001C22.5 14.666 22.37 14.3523 22.1228 14.1057L16.6809 8.92258Z" fill="url(#paint0_linear)"/>
<defs>
<linearGradient id="paint0_linear" x1="7.5" y1="15.2501" x2="22.5" y2="15.2501" gradientUnits="userSpaceOnUse">
<stop stop-color="white" stop-opacity="0.4"/>
<stop offset="1" stop-color="white" stop-opacity="0"/>
</linearGradient>
</defs>
</svg>
