<svg width="24" height="24" viewBox="0 0 24 24" fill="none" xmlns="http://www.w3.org/2000/svg">
<g clip-path="url(#clip0)">
<path d="M12.9795 23L12.9795 1C12.9795 0.447998 12.5315 -6.78401e-08 11.9795 -4.37114e-08C11.4275 -1.95826e-08 10.9795 0.447998 10.9795 1L10.9795 23C10.9795 23.552 11.4275 24 11.9795 24C12.5315 24 12.9795 23.552 12.9795 23Z" fill="#355070"/>
<path d="M5.3125 23L5.3125 1C5.3125 0.447998 4.8645 -6.78402e-08 4.3125 -4.37114e-08C3.7605 -1.95826e-08 3.3125 0.447998 3.3125 1L3.3125 23C3.3125 23.552 3.7605 24 4.3125 24C4.8645 24 5.3125 23.552 5.3125 23Z" fill="#355070"/>
<path d="M20.6455 23L20.6455 1C20.6455 0.447998 20.1975 -6.78403e-08 19.6455 -4.37115e-08C19.0935 -1.95827e-08 18.6455 0.447998 18.6455 1L18.6455 23C18.6455 23.552 19.0935 24 19.6455 24C20.1975 24 20.6455 23.552 20.6455 23Z" fill="#355070"/>
</g>
<defs>
<clipPath id="clip0">
<rect width="24" height="24" fill="white" transform="matrix(4.37114e-08 1 1 -4.37114e-08 0 0)"/>
</clipPath>
</defs>
</svg>
