<svg width="18" height="18" viewBox="0 0 18 18" fill="none" xmlns="http://www.w3.org/2000/svg">
<path fill-rule="evenodd" clip-rule="evenodd" d="M7.77832 9.19244L0.707031 2.12115C0.316406 1.73102 0.316406 1.09747 0.707031 0.707092C1.09766 0.316711 1.73145 0.316711 2.12109 0.707092L9.19238 7.77838L16.2637 0.707092C16.6543 0.316956 17.2871 0.316956 17.6777 0.707092C18.0684 1.09747 18.0684 1.73102 17.6777 2.1214L10.6064 9.19244L17.6777 16.2635C18.0684 16.6536 18.0684 17.2874 17.6777 17.6776C17.2871 18.0679 16.6533 18.0679 16.2637 17.6776L9.19238 10.6065L2.12109 17.6778C1.89941 17.8997 1.59863 17.9954 1.30957 17.9649C1.08984 17.942 0.875977 17.8463 0.707031 17.6778C0.317383 17.2874 0.317383 16.6539 0.707031 16.2635L7.77832 9.19244Z" fill="#355070"/>
</svg>
