<svg width="26" height="26" viewBox="0 0 26 26" fill="none" xmlns="http://www.w3.org/2000/svg">
<path fill-rule="evenodd" clip-rule="evenodd" d="M13.0011 0C9.4705 0 9.02742 0.0154375 7.64075 0.0785417C6.25679 0.141917 5.31213 0.361021 4.48554 0.6825C3.63052 1.01454 2.90523 1.45871 2.18265 2.18156C1.45952 2.90415 1.01535 3.62944 0.682229 4.48419C0.359938 5.31104 0.140563 6.25598 0.0782709 7.6394C0.01625 9.02606 0 9.46942 0 13C0 16.5306 0.0157083 16.9723 0.0785417 18.359C0.142188 19.7429 0.361292 20.6876 0.6825 21.5142C1.01481 22.3692 1.45898 23.0945 2.18183 23.8171C2.90415 24.5402 3.62944 24.9855 4.48392 25.3175C5.31104 25.639 6.25598 25.8581 7.63967 25.9215C9.02633 25.9846 9.46915 26 12.9995 26C16.5303 26 16.972 25.9846 18.3587 25.9215C19.7427 25.8581 20.6884 25.639 21.5155 25.3175C22.3703 24.9855 23.0945 24.5402 23.8168 23.8171C24.5399 23.0945 24.9841 22.3692 25.3172 21.5145C25.6368 20.6876 25.8562 19.7427 25.9212 18.3593C25.9835 16.9726 25.9997 16.5306 25.9997 13C25.9997 9.46942 25.9835 9.02633 25.9212 7.63967C25.8562 6.25571 25.6368 5.31104 25.3172 4.48446C24.9841 3.62944 24.5399 2.90415 23.8168 2.18156C23.0937 1.45844 22.3706 1.01427 21.5147 0.6825C20.686 0.361021 19.7408 0.141917 18.3568 0.0785417C16.9701 0.0154375 16.5287 0 12.997 0H13.0011ZM11.8348 2.34267C12.1809 2.34213 12.5672 2.34267 13.001 2.34267C16.472 2.34267 16.8834 2.35513 18.2541 2.41742C19.5216 2.47538 20.2095 2.68717 20.6678 2.86511C21.2744 3.10073 21.707 3.3824 22.1617 3.8374C22.6167 4.2924 22.8984 4.72573 23.1345 5.3324C23.3125 5.79011 23.5245 6.47803 23.5822 7.74553C23.6445 9.11594 23.6581 9.52761 23.6581 12.997C23.6581 16.4664 23.6445 16.878 23.5822 18.2484C23.5243 19.5159 23.3125 20.2039 23.1345 20.6616C22.8989 21.2682 22.6167 21.7002 22.1617 22.1549C21.7067 22.6099 21.2747 22.8916 20.6678 23.1272C20.2101 23.306 19.5216 23.5172 18.2541 23.5752C16.8837 23.6375 16.472 23.651 13.001 23.651C9.52976 23.651 9.11836 23.6375 7.74795 23.5752C6.48045 23.5167 5.79253 23.3049 5.33401 23.127C4.72734 22.8913 4.29401 22.6097 3.83901 22.1547C3.38401 21.6997 3.10234 21.2674 2.86617 20.6605C2.68824 20.2028 2.47617 19.5149 2.41849 18.2474C2.35619 16.8769 2.34374 16.4653 2.34374 12.9937C2.34374 9.52219 2.35619 9.11269 2.41849 7.74228C2.47644 6.47478 2.68824 5.78686 2.86617 5.32861C3.1018 4.72194 3.38401 4.28861 3.83901 3.83361C4.29401 3.37861 4.72734 3.09694 5.33401 2.86078C5.79226 2.68203 6.48045 2.47078 7.74795 2.41255C8.9472 2.35838 9.41195 2.34213 11.8348 2.33942V2.34267ZM19.9403 4.50122C19.0791 4.50122 18.3803 5.19916 18.3803 6.06068C18.3803 6.92193 19.0791 7.62068 19.9403 7.62068C20.8016 7.62068 21.5003 6.92193 21.5003 6.06068C21.5003 5.19943 20.8016 4.50122 19.9403 4.50122ZM13.0011 6.32392C9.31425 6.32392 6.32506 9.31311 6.32506 13C6.32506 16.6868 9.31425 19.6747 13.0011 19.6747C16.688 19.6747 19.6761 16.6868 19.6761 13C19.6761 9.31311 16.688 6.32392 13.0011 6.32392ZM13.0011 8.66663C15.3941 8.66663 17.3344 10.6066 17.3344 13C17.3344 15.393 15.3941 17.3333 13.0011 17.3333C10.6077 17.3333 8.66772 15.393 8.66772 13C8.66772 10.6066 10.6077 8.66663 13.0011 8.66663Z" fill="#EAAC8B"/>
</svg>
