<?xml version="1.0" encoding="utf-8"?>
<!-- Generator: Adobe Illustrator 25.0.1, SVG Export Plug-In . SVG Version: 6.00 Build 0)  -->
<svg version="1.1" id="Слой_1" xmlns="http://www.w3.org/2000/svg" xmlns:xlink="http://www.w3.org/1999/xlink" x="0px" y="0px"
	 viewBox="0 0 568 668" style="enable-background:new 0 0 568 668;" xml:space="preserve">
<style type="text/css">
	.st0{fill:#F7F7F7;}
</style>
<g>
	<g>
		<g>
			<path class="st0" d="M335,70c100.5,0,188.1,56.2,233,138.9V94.3c-29.9-28.9-64.4-51.8-102.6-68C424.1,8.9,380.2,0,335,0
				s-89.1,8.9-130.4,26.3c-39.9,16.9-75.7,41-106.5,71.8c-30.8,30.8-54.9,66.6-71.8,106.5C8.9,245.9,0,289.8,0,335
				c0,45.2,8.9,89.1,26.3,130.4c16.9,39.9,41,75.7,71.8,106.5c30.8,30.8,66.6,54.9,106.5,71.8C245.9,661.1,289.8,670,335,670
				s89.1-8.9,130.4-26.3c38.2-16.2,72.7-39,102.6-68V461.2C523.1,543.8,435.5,600,335,600C188.9,600,70,481.1,70,335
				S188.9,70,335,70z"/>
		</g>
	</g>
</g>
</svg>
