<?xml version="1.0" encoding="utf-8"?>
<!-- Generator: Adobe Illustrator 25.0.1, SVG Export Plug-In . SVG Version: 6.00 Build 0)  -->
<svg version="1.1" id="Слой_1" xmlns="http://www.w3.org/2000/svg" xmlns:xlink="http://www.w3.org/1999/xlink" x="0px" y="0px"
	 viewBox="0 0 465 423" style="enable-background:new 0 0 465 423;" xml:space="preserve">
<style type="text/css">
	.st0{fill:#F7F7F7;}
</style>
<g>
	<g>
		<g>
			<path class="st0" d="M396.9,26.1c-9.7-9.7-20.1-18.4-31-26.1H99.1c-11,7.7-21.3,16.4-31,26.1C24.2,70,0,128.4,0,190.5
				S24.2,311,68.1,354.9C112,398.8,170.4,423,232.5,423s120.5-24.2,164.4-68.1C440.8,311,465,252.6,465,190.5S440.8,70,396.9,26.1z
				 M232.5,353C142.9,353,70,280.1,70,190.5S142.9,28,232.5,28S395,100.9,395,190.5S322.1,353,232.5,353z"/>
		</g>
	</g>
</g>
</svg>
